<?xml version="1.0" standalone="no"?>
<!DOCTYPE svg PUBLIC "-//W3C//DTD SVG 20010904//EN"
 "http://www.w3.org/TR/2001/REC-SVG-20010904/DTD/svg10.dtd">
<svg version="1.0" xmlns="http://www.w3.org/2000/svg"
 width="880.000000pt" height="1245.000000pt" viewBox="0 0 880.000000 1245.000000"
 preserveAspectRatio="xMidYMid meet">
<metadata>
Created by potrace 1.16, written by Peter Selinger 2001-2019
</metadata>
<g transform="translate(0.000000,1245.000000) scale(0.100000,-0.100000)"
fill="#000000" stroke="none">
<path d="M4360 11721 c-229 -115 -449 -247 -658 -394 -157 -111 -277 -220
-343 -315 -28 -39 -124 -233 -162 -327 -77 -191 -136 -368 -183 -545 -46 -173
-61 -252 -104 -550 -23 -154 -21 -146 -32 -126 -7 13 -9 105 -5 275 10 402 46
621 179 1071 22 74 44 145 49 158 14 34 11 72 -6 78 -24 10 -328 -199 -495
-341 -156 -132 -360 -357 -447 -494 -107 -167 -170 -420 -180 -724 -11 -315
-39 -171 -82 411 -14 186 -37 178 -111 -38 -60 -177 -119 -422 -135 -560 -11
-91 -6 -719 6 -810 13 -102 29 -163 80 -297 71 -188 187 -404 318 -591 37 -53
73 -107 80 -120 23 -44 -19 -9 -131 106 -427 442 -642 945 -702 1645 -7 81
-18 153 -24 159 -17 17 -50 -17 -63 -66 -6 -23 -57 -180 -114 -351 -104 -312
-209 -639 -241 -750 -27 -94 -24 -177 11 -265 65 -165 154 -321 305 -532 66
-92 17 -61 -114 74 -116 118 -211 233 -334 403 -18 25 -37 45 -42 45 -22 0
-39 -51 -51 -150 -13 -119 -7 -503 10 -585 51 -245 66 -293 98 -328 37 -38
197 -149 456 -313 212 -136 252 -164 229 -164 -39 0 -490 212 -665 314 -55 32
-106 56 -115 54 -15 -3 -17 -25 -20 -178 -4 -239 18 -368 76 -435 35 -40 232
-121 422 -172 81 -22 124 -26 295 -32 241 -7 247 -12 103 -86 -53 -27 -100
-54 -105 -58 -20 -21 43 -27 302 -27 340 0 491 16 935 103 184 35 240 42 240
30 0 -5 -87 -54 -192 -108 -387 -196 -587 -325 -898 -580 -198 -161 -290 -244
-290 -261 0 -19 26 -18 140 7 138 29 170 33 170 21 0 -6 -46 -48 -102 -95
-118 -97 -271 -253 -341 -345 -67 -91 -67 -98 23 -417 12 -44 26 -93 30 -110
15 -61 72 -261 84 -295 8 -24 18 -35 31 -35 17 0 21 9 26 55 16 140 102 398
194 580 89 178 267 470 285 470 17 0 11 -31 -26 -124 -50 -125 -131 -356 -155
-441 -11 -38 -37 -155 -59 -260 -36 -174 -40 -203 -40 -344 0 -219 17 -275
159 -513 88 -147 467 -593 531 -625 36 -18 47 -2 32 50 -30 102 -53 263 -59
413 -8 210 3 218 57 42 72 -230 149 -398 264 -578 64 -98 166 -230 237 -305
31 -33 67 -72 80 -87 42 -47 200 -187 309 -273 113 -89 384 -286 418 -304 56
-30 55 1 -2 101 -58 102 -252 490 -299 598 -40 93 -114 294 -140 380 -61 201
-62 206 -101 400 -52 262 -59 326 -53 564 13 535 97 897 276 1191 101 167 198
283 405 484 94 92 163 173 259 301 87 118 167 212 246 290 114 112 211 191
211 172 0 -6 -19 -34 -42 -62 -192 -234 -286 -395 -329 -560 -12 -47 -31 -95
-42 -107 -12 -14 -55 -33 -106 -49 -106 -32 -150 -54 -221 -110 -62 -49 -103
-104 -98 -131 3 -14 17 -20 72 -26 39 -4 72 -9 74 -11 11 -11 -15 -27 -102
-60 -177 -69 -247 -144 -295 -316 -21 -72 -51 -236 -51 -273 0 -37 33 -27 160
47 238 141 240 141 700 150 218 5 312 10 398 25 93 17 233 54 290 77 23 10 12
-17 -28 -67 -59 -75 -53 -93 20 -65 440 168 455 171 832 171 163 0 300 -4 305
-8 11 -12 -25 -40 -182 -137 -102 -63 -165 -112 -246 -188 -128 -122 -135
-141 -66 -171 116 -50 209 -69 342 -72 72 -1 138 -1 148 0 33 2 16 30 -45 73
-73 50 -88 80 -67 129 34 84 124 148 280 200 84 28 110 32 245 36 259 9 294
-6 294 -122 0 -36 -7 -82 -15 -102 -21 -51 -13 -70 20 -46 28 21 196 217 213
250 16 29 15 95 0 115 -23 28 -257 92 -1003 273 -104 25 -255 62 -335 82 -125
31 -155 35 -220 29 -86 -6 -316 -61 -470 -112 -173 -56 -180 -47 -42 53 206
151 353 331 392 483 18 70 34 88 95 105 120 35 210 129 279 290 49 115 50 118
63 122 5 2 27 -25 47 -59 42 -73 88 -108 148 -115 35 -4 252 30 396 62 42 10
35 32 -31 97 -68 66 -87 106 -87 180 0 28 7 42 30 61 35 30 55 35 183 46 89 7
326 0 438 -14 52 -6 79 1 79 21 0 7 -25 41 -55 75 -31 34 -53 64 -51 66 8 8
68 -28 196 -117 69 -48 142 -96 161 -105 56 -30 199 -19 199 14 0 13 -121 159
-166 202 -84 79 -246 141 -556 213 -400 93 -465 104 -658 116 -102 6 -223 15
-270 20 -47 5 -121 12 -165 15 -44 4 -120 15 -170 26 -183 39 -279 89 -361
187 -27 31 -51 59 -55 62 -3 3 -40 52 -83 109 -192 259 -354 588 -455 922 -41
137 -58 205 -108 434 l-28 130 0 390 c1 417 6 477 66 735 120 517 371 958 736
1298 171 159 356 289 578 406 90 48 414 189 485 211 126 40 110 64 -88 129
-223 73 -452 89 -767 56 -291 -31 -464 -61 -658 -114 -176 -47 -321 -162 -595
-468 -134 -151 -146 -146 -51 20 117 205 249 386 393 539 55 60 68 93 34 93
-7 0 -83 -36 -168 -79z"/>
<path d="M6805 9593 c-194 -24 -502 -189 -736 -395 -57 -50 -89 -69 -89 -54 0
3 28 50 63 105 34 56 70 115 81 131 24 40 15 64 -22 55 -75 -18 -313 -115
-437 -177 -368 -184 -687 -466 -857 -758 -132 -227 -189 -356 -195 -446 -7
-91 7 -151 66 -299 111 -275 268 -536 488 -810 88 -110 131 -145 203 -165 54
-15 224 -37 336 -45 123 -8 126 -4 84 89 -89 198 -149 456 -136 586 8 87 25
137 87 266 196 410 489 770 824 1016 325 238 826 457 1315 573 212 50 258 63
266 76 11 18 -7 27 -111 60 -491 152 -750 200 -1050 198 -82 -1 -163 -4 -180
-6z"/>
<path d="M5300 9315 c-291 -63 -339 -79 -485 -161 -307 -169 -366 -246 -336
-434 6 -36 22 -146 36 -244 23 -174 32 -205 53 -192 6 3 49 70 95 149 112 187
174 273 312 426 129 144 239 247 370 345 150 112 152 114 135 125 -21 15 -60
12 -180 -14z"/>
<path d="M6429 6071 c-45 -14 -69 -31 -69 -49 0 -37 63 -123 142 -196 79 -73
82 -78 64 -91 -11 -8 -28 -15 -38 -15 -10 0 -51 -9 -91 -20 -84 -23 -331 -75
-399 -85 -62 -8 -123 9 -145 41 -30 43 -53 65 -63 59 -5 -3 -30 -38 -56 -77
-68 -106 -101 -143 -184 -206 -92 -70 -94 -72 -170 -204 -33 -59 -80 -133
-104 -166 -50 -67 -65 -102 -44 -102 8 0 47 21 88 46 213 132 507 289 670 358
25 11 70 30 100 44 188 83 565 214 665 231 161 27 595 12 679 -23 43 -18 45
-34 12 -107 -14 -29 -23 -56 -20 -61 20 -31 124 39 204 138 54 67 55 69 55
133 0 59 -4 72 -39 126 -71 112 -139 164 -213 165 -64 0 -152 -36 -203 -84
-42 -39 -55 -46 -90 -46 -70 0 -137 50 -159 121 -24 74 -23 74 -310 76 -141 1
-268 -2 -282 -6z"/>
<path d="M7070 4621 c0 -7 14 -32 31 -56 41 -57 41 -99 -2 -187 -18 -37 -30
-70 -26 -74 12 -13 78 39 161 128 87 93 98 115 71 142 -33 32 -235 73 -235 47z"/>
<path d="M4540 4350 c-58 -4 -163 -8 -235 -9 -129 -2 -356 -22 -469 -41 -173
-31 -406 -176 -406 -254 0 -26 14 -47 150 -234 128 -176 150 -182 150 -41 0
120 29 178 118 244 83 61 167 91 607 215 94 27 186 55 206 64 41 17 64 40 54
56 -7 11 -11 11 -175 0z"/>
</g>
</svg>
